# xmcd
# 
# Track frame offsets:
#     150
#     17490
#     37902
#     57131
#     68662
#     84414
#     99617
#     117173
#     128418
#     146462
# 
# Disc length: 2144
# 
# Revision: 0
# Processed by: cddbd v1.5.2PL0 Copyright (c) Steve Scherf et al.
# Submitted via: fre:ac v1.0.27
# 
DISCID=72085e0a
DTITLE=Willie Nelson - Stardust
DYEAR=1978
DGENRE=Country
TTITLE0=Stardust
TTITLE1=Georgia on My Mind
TTITLE2=Blue Skies
TTITLE3=All of Me
TTITLE4=Unchained Melody
TTITLE5=September Song
TTITLE6=On the Sunny Side of the Street
TTITLE7=Moonlight in Vermont
TTITLE8=Don't Get Around Much Anymore
TTITLE9=Someone to Watch Over Me
EXTD=
EXTT0=
EXTT1=
EXTT2=
EXTT3=
EXTT4=
EXTT5=
EXTT6=
EXTT7=
EXTT8=
EXTT9=
PLAYORDER=
